<svg width="27" height="27" xmlns="http://www.w3.org/2000/svg">
 <g>
  <title>Layer 1</title>
  <path d="m22.1616,12.4239l0,2.18436q0,0.42474 -0.30338,0.75846t-0.75846,0.30338l-15.16919,0q-0.45507,0 -0.7888,-0.30338t-0.30338,-0.75846l0,-2.18436q0,-0.42474 0.30338,-0.75847t0.7888,-0.30338l15.16919,0q0.42473,0 0.75846,0.30338t0.30338,0.75847zm4.3384,9.22288l0,-16.26138q0,-2.00233 -1.42591,-3.42825t-3.45857,-1.45625l-16.23103,0q-2.03267,0 -3.45857,1.45625t-1.42591,3.42825l0,16.26138q0,2.00232 1.42591,3.42824t3.45857,1.45625l16.23103,0q2.03268,0 3.45857,-1.45625t1.42591,-3.42824z" id="svg_1" fill="black"/>
 </g>

</svg>