<svg width="27" height="27" xmlns="http://www.w3.org/2000/svg">
 <g>
  <title>Layer 1</title>
  <path d="m22.1616,12.2989l0,2.18437q0,0.42474 -0.30338,0.75846t-0.75847,0.30338l-5.43056,0l0,5.43056q0,0.45507 -0.33372,0.75846t-0.75847,0.33372l-2.15403,0q-0.45507,0 -0.75846,-0.33372t-0.33372,-0.75846l0,-5.43056l-5.40024,0q-0.45507,0 -0.78879,-0.30338t-0.30339,-0.75846l0,-2.18437q0,-0.42474 0.30339,-0.75846t0.78879,-0.30338l5.40024,0l0,-5.43056q0,-0.42474 0.33372,-0.75846t0.75846,-0.33372l2.15403,0q0.45507,0 0.75847,0.33372t0.33372,0.75846l0,5.43056l5.43056,0q0.42474,0 0.75847,0.30338t0.30338,0.75846zm4.3384,9.22287l0,-16.26137q0,-2.00233 -1.42591,-3.42824t-3.45859,-1.45624l-16.23104,0q-2.03266,0 -3.45857,1.45624t-1.42591,3.42824l0,16.26137q0,2.00234 1.42591,3.42824t3.45857,1.45624l16.23104,0q2.03267,0 3.45859,-1.45624t1.42591,-3.42824z" id="svg_1" fill="black"/>
 </g>
 
</svg>